<?xml version="1.0" encoding="utf-8"?>
<!-- Generator: Adobe Illustrator 24.0.3, SVG Export Plug-In . SVG Version: 6.00 Build 0)  -->
<svg version="1.1" xmlns="http://www.w3.org/2000/svg" xmlns:xlink="http://www.w3.org/1999/xlink" x="0px" y="0px"
	 viewBox="0 0 800 800" style="enable-background:new 0 0 800 800;" xml:space="preserve">
<style type="text/css">
	.st0{display:none;}
</style>
<g id="Layer_1" class="st0">
	
		<image style="display:inline;overflow:visible;" width="750" height="1000" xlink:href="tklogo.jpg"  transform="matrix(1 0 0 1 25 -127)">
	</image>
</g>
<g id="Layer_2">
	<g>
		<g>
			<path d="M244.2,319.2c10-9,20.2-18,30.6-26.6c1.5-1.2,3-2.5,4.6-3.7c0.6-0.5,2.4-1.9,0.8-0.6c0.6-0.5,1.3-1,2-1.5
				c1-0.7,2-1.4,3-2c2.8-1.9-2.1,0.4-2.8,0.4c-2.5-0.1-2.2-0.1-0.2,0.2c1.9,0.3-1.8-1-0.3-0.2c0.6,0.4,1.3,0.6,2,1
				c3.6,1.8,7,4,10.4,6.3c5.2,3.5,10.2,7.1,15.1,10.9c4.9,3.8,9.5,8.4,15.1,11.3c9,4.7,19.4,6.1,29.4,5.8c21.6-0.6,43-7.1,63-15
				c13.2-5.2,25.4-11.9,38.1-18c16.4-7.9,33.8-15.5,48.4-26.5c6.1-4.6,12.9-10.4,12.9-18.8c-0.1-10.2-11.2-16.6-20.4-16.6
				c-11.5,0.1-21.9,6.9-30.4,14.1c-10.8,9.1-19.1,20.7-27,32.3c-13.5,19.9-26.4,40.3-38.9,60.8c-7.2,11.7-13.9,23.5-19.9,35.8
				c-8.4,17.4-17,34.9-27.4,51.1c-0.9,1.4-1.8,2.8-2.8,4.1c-0.3,0.4-0.6,0.8-0.9,1.2c0,0,1.3-1.6,0.6-0.8c-0.4,0.5-0.8,1-1.3,1.5
				c-1.3,1.4-2.7,2.7-3.9,4.2c-4.7,5.7-9,11.7-13.3,17.7c-11,15.4-21.6,31.1-32.3,46.7c-4,5.9-8,11.7-12.2,17.5
				c-0.6,0.9-1.3,1.7-1.9,2.6c-0.8,1.2,1.9-2,0,0c-1,1-1.9,2-2.9,3.1c-11.3,12.2-22.5,24.5-34.3,36.3c-6.5,6.6-13.2,13.1-20.3,19
				c-0.8,0.6-1.5,1.3-2.3,1.9c-1.5,1.2-0.1,0.1-0.4,0.4c-1.3,0.9-2.6,1.9-4,2.7c-1,0.6-2.1,1.1-3.1,1.7c2.2-1.3,1-0.7-0.4-0.2
				c-1.8,0.7,3.1-0.7,0.6-0.1c-0.5,0.1-1.4-0.2-1.8,0c0.6-0.3,3,0.7,1,0c-1.5-0.5,2.9,1.5,1,0.3c2.7,1.7,3.3,3,3.5,5.8
				c-0.2-2.3-0.2,0.7-0.2,0.8c0.3-0.4,0.6-1.7,0.7-2.2c-0.5,2.6-0.5,1.2,0.4-0.4c0.6-1.1,1.3-2.1,2-3.1c0.4-0.6,0.8-1.1,1.2-1.7
				c-0.9,1.3-0.8,1,0,0c1.1-1.4,2.3-2.7,3.4-4c6.6-7.3,13.9-13.9,21.3-20.3c18-15.5,37.2-29.4,56.1-43.7
				c18.2-13.8,36.3-27.7,54.3-41.7c35.7-27.5,71.2-55,106.8-82.7c15.5-12.1,31.5-23.7,46.6-36.3c18.7-15.6,36.5-32.5,54.3-49
				c12.7-11.8,25.4-23.8,37.5-36.2c7.9-8.1,17.4-16.8,22.8-26.8c2.9-5.5,3.6-11.9-1.2-16.7c-3.6-3.6-8.7-4.7-13.5-4.3
				c-13.8,1.3-26.3,10.7-36.9,18.9c-44.6,34.8-73.9,85.1-106.5,130.3c-7.1,9.9-14.4,19.7-21.7,29.5c-5.4,7.2-9.8,12.8-15.8,20.2
				c-6,7.5-12.2,14.9-19.1,21.6c-1.5,1.4,0.3-0.1,0.9-0.6c-1.7,1.4-3.3,2.4-4.5,4.4c-3.1,5.4-0.7,11.9,4.5,14.9
				c6.4,3.7,15.9,3.1,23,3.9c2,0.2,4,0.4,6,0.7c-1.8-0.2,0.1,0,0.8,0.1c1.1,0.2,2.2,0.3,3.3,0.6c1.5,0.3,3,0.8,4.5,1.1
				c1.9,0.4-0.5-0.3-0.3-0.2c2,1.3-0.4-0.4-1-1.3c-0.3-0.4-2-5-1.7-5.1c-0.1,0,0,2,0.1,2.1c0.1,1.7,0.2,3.4,0.2,5.1
				c0.1,2.6,0.1,5.2-1.3,7.5c-1.2,1.9-3.1,3.6-4.6,5.2c-12.2,13.9-24.7,28.1-34.8,43.7c-4,6.3-8.6,13.8-7.7,21.6
				c0.8,6.6,4.8,13.8,9.1,18.8c14.4,17,41.4,11.8,60.1,6.8c21.2-5.7,41.9-13.9,62.2-22.3c11.4-4.7,22.8-9.6,34.1-14.7
				c5-2.3,6.2-9.5,3.7-14c-3-5.1-8.9-6-14-3.7c-16.8,7.7-31,13.6-48.3,20.3c-12.9,5-26,9.8-39.3,13.6c-11.7,3.4-26.6,7-37,4.1
				c-0.7-0.2-3.7-1.5-1.8-0.5c-1-0.5-1.9-1-2.8-1.6c-1.3-0.8,1,1.2-0.8-0.7c-0.3-0.3-0.6-0.7-1-1c-1.3-1.3,0.8,1.2,0.1,0.2
				c-1-1.4-1.8-2.9-2.6-4.5c-1-2-0.3-0.7-0.2-0.4c-0.3-0.8-0.6-1.7-1-2.5c-0.5-1.1-0.2-2.2-0.5-0.8c0,0.2-0.5,2.9,0,1.6
				c0.3-0.6,0.5-1.5,0.7-2.2c0.4-1.3-0.9,1.9-0.3,0.6c0.3-0.5,0.5-1.1,0.8-1.6c2.3-4.6,5.3-8.9,8.2-13.1
				c6.4-8.9,13.6-17.6,21.4-26.6c7.3-8.5,16.2-16.3,17.6-28.1c0.9-7.9,1.5-18.8-6-23.7c-4.1-2.6-9-3.6-13.8-4.3
				c-6.3-1-12.6-1.6-19-2.2c-1.2-0.1-2.4-0.3-3.7-0.4c-2.5-0.2,1.6,0.4-1.1-0.2c-0.8-0.2-1.8-0.4-2.6-0.5c-0.1,0-0.8-0.2-0.8-0.2
				c0.6,0.3,1.2,0.5,1.8,0.8c-1.5-0.9-0.5,0.1,3.1,3.1c0.5,1.7,0.9,3.4,1.4,5.1c0.3,3.8-8.4,11.3-1.9,6c0.3-0.2,0.5-0.4,0.8-0.7
				c0.9-0.8,1.7-1.6,2.6-2.4c2.5-2.5,4.8-5.1,7.1-7.7c8.6-10,16.8-20.4,24.8-30.9c12.6-16.5,24.8-33.3,36.8-50.2
				c15.6-22.1,30.3-44.8,47.5-65.7c12.3-15,25.6-29.3,40.6-41.6c3-2.4,3.4-2.8,7.1-5.4c2.5-1.8,5.1-3.5,7.8-5.1
				c2.1-1.2,4.1-2.4,6.3-3.4c0.5-0.3,1.1-0.5,1.6-0.8c1.8-1-1.9,0.7-0.6,0.3c1-0.4,2.1-0.8,3.1-1.1c0.7-0.2,1.4-0.4,2.2-0.6
				c2.5-0.8-1.1-0.2-0.4,0c0.3,0.1,1.7,0.1,2,0c0.1-0.1-3.1-0.7-0.8,0c1.2,0.4-2.9-1.5-1.2-0.4c-1.8-1.2-2.9-2.2-3.6-4.8
				c-0.5-1.8-0.3-3-0.1-4.2c-0.4,2.1,0.6-1,0.4-0.8c-0.8,0.9-1.4,2.4-2.1,3.5c-0.4,0.6-0.9,1.2-1.4,1.9c2.1-3-0.5,0.6-1.1,1.3
				c-3.2,3.9-6.7,7.6-10.1,11.3c-19.3,20.4-40.1,39.4-60.9,58.3c-12,10.9-23.8,22.1-36.3,32.4c-11.9,9.9-24.5,19.1-36.7,28.6
				c-27.5,21.4-55,42.7-82.5,64c-29.5,22.8-59.1,45.6-88.8,68.2c-16.4,12.5-33.1,24.7-48.9,37.8c-12.4,10.3-25,21.1-34.7,34.1
				c-4.8,6.5-9.5,15.6-5.1,23.6c3.9,7.1,12.4,8.5,19.7,7c11.1-2.3,20.7-12.7,28.6-20.1c11.7-11,22.8-22.7,33.7-34.5
				c5.8-6.2,12-12.3,17.2-19.1c7.1-9.4,13.5-19.2,20.2-28.9c8.9-13,17.7-25.9,26.8-38.7c1.8-2.5,3.6-4.9,5.4-7.4
				c0.8-1.1,1.7-2.2,2.5-3.3c0.9-1.2-1.5,1.9-0.2,0.2c0.5-0.6,1-1.3,1.5-1.9c2.6-3.2,5.6-6,8.1-9.4c15.8-21.1,24.9-46.3,37.5-69.3
				c17.1-31.1,36.7-61.4,57-90.5c6.3-9,13.7-18.1,22.8-24.4c3.3-2.3,6.4-4.1,8.9-4.8c0.9-0.3,1.8-0.5,2.7-0.7c2.9-0.6-2.1,0.4,0.6,0
				c0.5-0.1,1.1,0,1.6,0c-4.1-0.2,3.1,0-0.9-0.3c0.1,0,2.2,1.2,0.8,0.3c-1.3-0.9,0.5,0.3,0.6,0.6c-0.6-1.7-1.7-3.3-1.5-5.3
				c0-0.2,1-2.4,0.1-1c-1,1.6,1.4-1.5,0.5-0.6c-0.5,0.5-0.9,1.1-1.5,1.6c-0.8,0.8-1.7,1.6-2.6,2.3c-2,1.7,1.8-1.3-0.4,0.3
				c-0.7,0.5-1.4,1-2.1,1.5c-2.9,2-5.9,3.8-8.9,5.6c-13.5,7.9-27.6,14.4-41.6,21.2c-4.1,2-8,4.1-12,6.2c-5.7,3-10.7,5.1-15.1,6.8
				c-7.8,3.1-15.8,5.9-24,8.3c-7.7,2.3-17.6,4.6-24.3,5.5c-4.1,0.5-8.3,0.8-12.4,0.9c-4,0-7.4-0.2-9.7-0.8c-1.9-0.4-3.7-0.9-5.5-1.5
				c-1.9-0.6-0.5-0.2-0.1,0c-0.8-0.4-1.6-0.8-2.4-1.2c-0.8-0.4-1.5-0.9-2.2-1.4c2,1.3-0.6-0.5-0.8-0.7c-3.5-2.8-7-5.5-10.5-8.2
				c-7.2-5.5-14.6-11-22.5-15.7c-4.5-2.7-9.8-5.7-15.2-5.8c-5-0.1-8.9,3-12.7,5.8c-6.1,4.7-12,9.6-17.9,14.6
				c-7.5,6.4-14.9,12.9-22.2,19.5C220,313.6,234.5,328,244.2,319.2L244.2,319.2z"/>
		</g>
	</g>
</g>
</svg>
